<svg xmlns="http://www.w3.org/2000/svg" version="1.1" xmlns:xlink="http://www.w3.org/1999/xlink" xmlns:svgjs="http://svgjs.com/svgjs" width="300" height="300"><svg width="300" height="300" viewBox="0 0 300 300" fill="none" xmlns="http://www.w3.org/2000/svg">
<rect width="300" height="300" rx="18" fill="#F9C74F"></rect>
<path d="M69.1114 137.556C69.1114 112.667 38.0003 118.889 44.2226 143.778C50.4448 168.667 62.8892 174.889 62.8892 174.889L69.1114 137.556ZM230.889 137.556C230.889 112.667 262 118.889 255.778 143.778C249.556 168.667 237.111 174.889 237.111 174.889L230.889 137.556Z" fill="#31373D"></path>
<path d="M241.155 173.246C241.155 241.019 211.967 260.899 150 260.899C88.0389 260.899 58.838 241.019 58.838 173.246C58.838 105.474 88.0389 40.0098 150 40.0098C211.967 40.0098 241.155 105.474 241.155 173.246Z" fill="#31373D"></path>
<path d="M209.528 181.111C218.799 153.372 222.52 135.614 206.771 135.614H93.2282C77.4735 135.614 81.2006 153.372 90.4655 181.111C59.8024 250.806 144.81 254.676 150 254.676C155.189 254.676 238.996 248.087 209.528 181.111Z" fill="#66757F"></path>
<path d="M131.334 150.019C131.334 156.894 125.758 162.463 118.889 162.463C112.02 162.463 106.445 156.894 106.445 150.019C106.445 143.149 112.02 143.796 118.889 143.796C125.758 143.796 131.334 143.143 131.334 150.019ZM193.556 150.019C193.556 156.894 187.981 162.463 181.111 162.463C174.242 162.463 168.667 156.894 168.667 150.019C168.667 143.149 174.242 143.796 181.111 143.796C187.981 143.796 193.556 143.143 193.556 150.019Z" fill="#31373D"></path>
<path d="M134.893 191.409C139.8 191.409 143.778 188.623 143.778 185.187C143.778 181.75 139.8 178.964 134.893 178.964C129.985 178.964 126.007 181.75 126.007 185.187C126.007 188.623 129.985 191.409 134.893 191.409Z" fill="#31373D"></path>
<path d="M173.993 185.187C173.993 188.627 170.017 191.409 165.107 191.409C160.192 191.409 156.216 188.627 156.216 185.187C156.216 181.746 160.192 178.964 165.107 178.964C170.023 178.964 173.993 181.752 173.993 185.187Z" fill="#31373D"></path>
<path d="M168.791 168.915C156.564 167.298 150 174.105 150 174.105C150 174.105 143.435 167.298 131.202 168.915C111.565 171.51 110.762 189.368 119.138 188.235C123.904 187.588 119.978 182.399 129.796 178.554C139.621 174.721 150 182.66 150 182.66C150 182.66 160.372 174.721 170.197 178.56C180.022 182.399 176.09 187.594 180.862 188.242C189.237 189.368 188.441 171.51 168.791 168.915V168.915Z" fill="#99AAB5"></path>
<path d="M192.529 224.797C185.007 226.807 172.593 228.506 150 228.506C127.407 228.506 115 226.813 107.471 224.797C87.5292 219.484 95.5061 214.002 107.471 215.607C119.437 217.219 130.064 218.189 150 218.189C169.943 218.189 180.576 217.219 192.529 215.607C204.495 214.002 212.465 219.484 192.529 224.797Z" fill="#31373D"></path>
<path d="M64.4629 141.444C73.1927 133.822 57.7553 118.012 50.7989 125.615C48.6771 127.936 56.5295 124.445 59.1118 132.372C61.0282 138.234 59.118 146.111 64.4629 141.444ZM235.53 141.444C226.807 133.822 242.238 118.012 249.194 125.615C251.316 127.936 243.464 124.445 240.875 132.372C238.971 138.234 240.875 146.111 235.53 141.444V141.444Z" fill="#66757F"></path>
</svg><style>@media (prefers-color-scheme: light) { :root { filter: none; } }
</style></svg>